<svg xmlns="http://www.w3.org/2000/svg" width="478" height="147" viewBox="0 0 478 147" fill="none">
<path d="M224.315 120.92C217.787 120.92 212.283 119.896 207.803 117.848C203.387 115.8 200.027 113.016 197.723 109.496C195.483 105.912 194.363 101.816 194.363 97.208H211.643C211.643 98.872 212.091 100.408 212.987 101.816C213.947 103.16 215.355 104.216 217.211 104.984C219.067 105.752 221.435 106.136 224.315 106.136C226.811 106.136 228.923 105.816 230.651 105.176C232.443 104.536 233.787 103.64 234.683 102.488C235.643 101.336 236.123 99.96 236.123 98.36C236.123 96.312 235.259 94.744 233.531 93.656C231.803 92.504 228.891 91.768 224.795 91.448L220.283 91.064C213.051 90.424 207.291 88.152 203.003 84.248C198.715 80.344 196.571 75.16 196.571 68.696C196.571 64.088 197.627 60.152 199.739 56.888C201.915 53.624 204.955 51.128 208.859 49.4C212.763 47.672 217.371 46.808 222.683 46.808C228.443 46.808 233.307 47.768 237.275 49.688C241.307 51.608 244.379 54.328 246.491 57.848C248.603 61.304 249.659 65.336 249.659 69.944H232.379C232.379 68.408 231.995 67 231.227 65.72C230.459 64.44 229.339 63.448 227.867 62.744C226.459 61.976 224.731 61.592 222.683 61.592C220.763 61.592 219.131 61.912 217.787 62.552C216.507 63.128 215.515 63.96 214.811 65.048C214.171 66.136 213.851 67.352 213.851 68.696C213.851 70.488 214.459 72.024 215.675 73.304C216.891 74.584 219.003 75.352 222.011 75.608L226.523 75.992C231.771 76.44 236.411 77.592 240.443 79.448C244.475 81.24 247.643 83.704 249.947 86.84C252.251 89.976 253.403 93.816 253.403 98.36C253.403 102.904 252.219 106.872 249.851 110.264C247.547 113.656 244.219 116.28 239.867 118.136C235.579 119.992 230.395 120.92 224.315 120.92ZM287.116 119.768C281.356 119.768 276.748 119.064 273.292 117.656C269.9 116.248 267.436 113.912 265.9 110.648C264.364 107.384 263.596 102.968 263.596 97.4L263.692 52.184H279.82L279.724 97.88C279.724 100.248 280.332 102.072 281.548 103.352C282.828 104.568 284.652 105.176 287.02 105.176H294.316V119.768H287.116ZM255.916 78.68V66.008H294.316V78.68H255.916ZM329.893 120.92C325.221 120.92 321.061 120.216 317.413 118.808C313.765 117.4 310.661 115.448 308.101 112.952C305.605 110.456 303.685 107.576 302.341 104.312C301.061 101.048 300.421 97.56 300.421 93.848V91.544C300.421 87.704 301.093 84.12 302.437 80.792C303.845 77.464 305.829 74.552 308.389 72.056C310.949 69.56 314.053 67.608 317.701 66.2C321.349 64.792 325.413 64.088 329.893 64.088C334.437 64.088 338.501 64.792 342.085 66.2C345.733 67.608 348.837 69.56 351.397 72.056C353.957 74.552 355.909 77.464 357.253 80.792C358.661 84.12 359.365 87.704 359.365 91.544V93.848C359.365 97.56 358.693 101.048 357.349 104.312C356.069 107.576 354.149 110.456 351.589 112.952C349.093 115.448 346.021 117.4 342.373 118.808C338.725 120.216 334.565 120.92 329.893 120.92ZM329.893 106.328C332.581 106.328 334.789 105.752 336.517 104.6C338.309 103.448 339.653 101.848 340.549 99.8C341.445 97.688 341.893 95.32 341.893 92.696C341.893 89.944 341.413 87.544 340.453 85.496C339.557 83.384 338.213 81.72 336.421 80.504C334.629 79.288 332.453 78.68 329.893 78.68C327.333 78.68 325.157 79.288 323.365 80.504C321.573 81.72 320.197 83.384 319.237 85.496C318.341 87.544 317.893 89.944 317.893 92.696C317.893 95.32 318.341 97.688 319.237 99.8C320.133 101.848 321.477 103.448 323.269 104.6C325.061 105.752 327.269 106.328 329.893 106.328ZM368.93 119V66.008H382.754V89.048H382.562C382.562 81.624 384.098 75.8 387.17 71.576C390.306 67.352 394.786 65.24 400.61 65.24H402.722V80.216H398.69C394.786 80.216 391.746 81.272 389.57 83.384C387.458 85.496 386.402 88.536 386.402 92.504V119H368.93ZM434.294 120.92C429.814 120.92 425.846 120.152 422.39 118.616C418.934 117.08 416.022 115 413.654 112.376C411.286 109.752 409.462 106.808 408.182 103.544C406.966 100.28 406.358 96.92 406.358 93.464V91.544C406.358 87.96 406.966 84.536 408.182 81.272C409.462 77.944 411.254 75 413.558 72.44C415.926 69.88 418.806 67.864 422.198 66.392C425.59 64.856 429.43 64.088 433.718 64.088C439.414 64.088 444.246 65.368 448.214 67.928C452.182 70.488 455.222 73.88 457.334 78.104C459.446 82.264 460.502 86.808 460.502 91.736V97.304H413.654V87.896H450.422L444.374 92.12C444.374 89.112 443.958 86.584 443.126 84.536C442.358 82.424 441.174 80.824 439.574 79.736C438.038 78.648 436.086 78.104 433.718 78.104C431.414 78.104 429.398 78.648 427.67 79.736C426.006 80.76 424.726 82.36 423.83 84.536C422.934 86.648 422.486 89.336 422.486 92.6C422.486 95.544 422.902 98.104 423.734 100.28C424.566 102.392 425.846 104.024 427.574 105.176C429.302 106.328 431.542 106.904 434.294 106.904C436.726 106.904 438.71 106.488 440.246 105.656C441.846 104.824 442.966 103.704 443.606 102.296H459.542C458.774 105.88 457.238 109.08 454.934 111.896C452.694 114.712 449.814 116.92 446.294 118.52C442.838 120.12 438.838 120.92 434.294 120.92Z" fill="#008ECC"/>
<g clip-path="url(#clip0_126_32)">
<path d="M165.542 36.75C165.542 36.1977 165.095 35.75 164.542 35.75H142.036V27.5625L142.036 27.5465C141.972 23.556 140.981 19.8293 139.064 16.3816C137.159 12.9572 134.561 9.93988 131.284 7.32873C128 4.71224 124.16 2.67369 119.776 1.20512C115.382 -0.267064 110.714 -1 105.777 -1C99.5543 -1 93.7047 0.210215 88.2395 2.63577C82.7688 0.209133 76.8577 -1 70.5182 -1.00005L70.5084 -0.999952C65.5155 -0.951164 60.8487 -0.194596 56.5151 1.27829C52.1974 2.74576 48.3647 4.75688 45.0262 7.31735C41.6796 9.88409 39.0446 12.9072 37.1368 16.3869C35.2205 19.8823 34.2591 23.6123 34.2591 27.5625V35.75H11.7531C11.2008 35.75 10.7531 36.1977 10.7531 36.75V128.625L10.7533 128.649C10.8183 131.39 11.5022 133.942 12.8074 136.289C14.1016 138.616 15.8762 140.654 18.1155 142.405C20.3543 144.155 22.9349 145.521 25.8471 146.511C28.7755 147.507 31.9152 148 35.2591 148H141.036L141.051 148C144.332 147.951 147.463 147.432 150.442 146.442C153.415 145.453 156.029 144.086 158.272 142.333C160.511 140.582 162.286 138.544 163.58 136.217C164.887 133.866 165.542 131.33 165.542 128.625V36.75ZM35.2591 136.812C35.2491 136.812 35.2391 136.813 35.229 136.813C33.7599 136.857 32.3543 136.637 31.0054 136.153C29.6189 135.657 28.4622 135.034 27.5193 134.297C26.5788 133.562 25.8422 132.706 25.2982 131.728C24.771 130.78 24.5061 129.751 24.5061 128.625V46.9375H116.53V128.625C116.53 131.508 117.296 134.241 118.804 136.812H35.2591ZM141.036 136.812C141.026 136.812 141.016 136.813 141.006 136.813C139.537 136.857 138.132 136.637 136.783 136.153C135.396 135.657 134.239 135.034 133.297 134.297C132.356 133.562 131.619 132.706 131.075 131.728C130.548 130.78 130.283 129.751 130.283 128.625V46.9375H151.789V128.625C151.789 128.641 151.79 128.658 151.791 128.674C151.842 129.71 151.591 130.715 151.008 131.708C150.398 132.749 149.625 133.634 148.684 134.369C147.742 135.105 146.62 135.701 145.306 136.148C144.012 136.588 142.592 136.812 141.036 136.812ZM126.569 20.9347C127.715 23.0414 128.283 25.2462 128.283 27.5625V35.75H106.777V31.0078C106.777 29.015 106.684 27.1371 106.496 25.375C106.306 23.5927 105.958 21.8356 105.452 20.1041C104.933 18.3319 104.128 16.5746 103.046 14.8326C102.212 13.4907 101.162 12.1475 99.9033 10.802C101.767 10.3932 103.725 10.1875 105.777 10.1875C108.853 10.1875 111.771 10.6727 114.538 11.6389C117.329 12.6138 119.743 13.8831 121.792 15.439C123.828 16.9848 125.415 18.8161 126.569 20.9347ZM93.0242 27.5625V35.75H48.0121V27.5749C48.0711 25.2544 48.67 23.0447 49.8186 20.9347C50.9735 18.8131 52.5648 16.9545 54.6063 15.3586C56.6525 13.7591 59.0302 12.4941 61.7497 11.5699C64.4529 10.6511 67.3734 10.1875 70.5182 10.1875C73.594 10.1875 76.5123 10.6727 79.2786 11.6389C82.0698 12.6138 84.4841 13.8831 86.5329 15.439C88.5685 16.9848 90.1563 18.8161 91.3095 20.9347C92.4563 23.0414 93.0242 25.2462 93.0242 27.5625Z" fill="#222222" stroke="#222222" stroke-width="2" stroke-linejoin="round"/>
<path d="M33.6176 112V69H50.8474L64.5748 103.282H66.552L65.4222 104.342V69H75.2517V112H57.9088L44.1814 77.7178H42.2042L43.3341 76.6575V112H33.6176Z" fill="#222222"/>
<path d="M65.5219 112V69H82.7518L96.4792 103.282H98.4564L97.3265 104.342V69H107.156V112H89.8132L76.0858 77.7178H74.1086L75.2384 76.6575V112H65.5219Z" fill="#222222"/>
</g>
<defs>
<clipPath id="clip0_126_32">
<rect width="188.048" height="147" fill="white"/>
</clipPath>
</defs>
</svg>